<mxfile host="app.diagrams.net" agent="Mozilla/5.0 (Windows NT 10.0; Win64; x64) AppleWebKit/537.36 (KHTML, like Gecko) Chrome/130.0.0.0 Safari/537.36" version="24.8.4">
  <diagram name="Page-1" id="_rjQY9pgB8pPIRc0phPz">
    <mxGraphModel dx="2163" dy="1597" grid="0" gridSize="10" guides="1" tooltips="1" connect="1" arrows="1" fold="1" page="0" pageScale="1" pageWidth="827" pageHeight="1169" math="0" shadow="0">
      <root>
        <mxCell id="0" />
        <mxCell id="1" parent="0" />
        <mxCell id="NFQ7hSv4LBOZTG51P4BY-4" value="Doctor_Availability.csv" style="swimlane;fontStyle=0;childLayout=stackLayout;horizontal=1;startSize=30;horizontalStack=0;resizeParent=1;resizeParentMax=0;resizeLast=0;collapsible=1;marginBottom=0;whiteSpace=wrap;html=1;" parent="1" vertex="1">
          <mxGeometry x="7" y="-453" width="166" height="150" as="geometry" />
        </mxCell>
        <mxCell id="NFQ7hSv4LBOZTG51P4BY-5" value="Doctor ID&amp;nbsp;[Foreign Key]" style="text;strokeColor=none;fillColor=none;align=left;verticalAlign=middle;spacingLeft=4;spacingRight=4;overflow=hidden;points=[[0,0.5],[1,0.5]];portConstraint=eastwest;rotatable=0;whiteSpace=wrap;html=1;" parent="NFQ7hSv4LBOZTG51P4BY-4" vertex="1">
          <mxGeometry y="30" width="166" height="30" as="geometry" />
        </mxCell>
        <mxCell id="NFQ7hSv4LBOZTG51P4BY-6" value="Available Date" style="text;strokeColor=none;fillColor=none;align=left;verticalAlign=middle;spacingLeft=4;spacingRight=4;overflow=hidden;points=[[0,0.5],[1,0.5]];portConstraint=eastwest;rotatable=0;whiteSpace=wrap;html=1;" parent="NFQ7hSv4LBOZTG51P4BY-4" vertex="1">
          <mxGeometry y="60" width="166" height="30" as="geometry" />
        </mxCell>
        <mxCell id="NFQ7hSv4LBOZTG51P4BY-7" value="Available Time Slot" style="text;strokeColor=none;fillColor=none;align=left;verticalAlign=middle;spacingLeft=4;spacingRight=4;overflow=hidden;points=[[0,0.5],[1,0.5]];portConstraint=eastwest;rotatable=0;whiteSpace=wrap;html=1;fontStyle=0" parent="NFQ7hSv4LBOZTG51P4BY-4" vertex="1">
          <mxGeometry y="90" width="166" height="30" as="geometry" />
        </mxCell>
        <mxCell id="NFQ7hSv4LBOZTG51P4BY-8" value="Status" style="text;strokeColor=none;fillColor=none;align=left;verticalAlign=middle;spacingLeft=4;spacingRight=4;overflow=hidden;points=[[0,0.5],[1,0.5]];portConstraint=eastwest;rotatable=0;whiteSpace=wrap;html=1;fontStyle=0" parent="NFQ7hSv4LBOZTG51P4BY-4" vertex="1">
          <mxGeometry y="120" width="166" height="30" as="geometry" />
        </mxCell>
        <mxCell id="NFQ7hSv4LBOZTG51P4BY-9" value="Login_Activity.csv" style="swimlane;fontStyle=0;childLayout=stackLayout;horizontal=1;startSize=30;horizontalStack=0;resizeParent=1;resizeParentMax=0;resizeLast=0;collapsible=1;marginBottom=0;whiteSpace=wrap;html=1;" parent="1" vertex="1">
          <mxGeometry x="-417" y="-513" width="166" height="180" as="geometry" />
        </mxCell>
        <mxCell id="NFQ7hSv4LBOZTG51P4BY-10" value="Timestamp" style="text;strokeColor=none;fillColor=none;align=left;verticalAlign=middle;spacingLeft=4;spacingRight=4;overflow=hidden;points=[[0,0.5],[1,0.5]];portConstraint=eastwest;rotatable=0;whiteSpace=wrap;html=1;" parent="NFQ7hSv4LBOZTG51P4BY-9" vertex="1">
          <mxGeometry y="30" width="166" height="30" as="geometry" />
        </mxCell>
        <mxCell id="NFQ7hSv4LBOZTG51P4BY-11" value="User ID [Foreign Key]" style="text;strokeColor=none;fillColor=none;align=left;verticalAlign=middle;spacingLeft=4;spacingRight=4;overflow=hidden;points=[[0,0.5],[1,0.5]];portConstraint=eastwest;rotatable=0;whiteSpace=wrap;html=1;" parent="NFQ7hSv4LBOZTG51P4BY-9" vertex="1">
          <mxGeometry y="60" width="166" height="30" as="geometry" />
        </mxCell>
        <mxCell id="NFQ7hSv4LBOZTG51P4BY-12" value="Role" style="text;strokeColor=none;fillColor=none;align=left;verticalAlign=middle;spacingLeft=4;spacingRight=4;overflow=hidden;points=[[0,0.5],[1,0.5]];portConstraint=eastwest;rotatable=0;whiteSpace=wrap;html=1;fontStyle=0" parent="NFQ7hSv4LBOZTG51P4BY-9" vertex="1">
          <mxGeometry y="90" width="166" height="30" as="geometry" />
        </mxCell>
        <mxCell id="NFQ7hSv4LBOZTG51P4BY-13" value="Activity" style="text;strokeColor=none;fillColor=none;align=left;verticalAlign=middle;spacingLeft=4;spacingRight=4;overflow=hidden;points=[[0,0.5],[1,0.5]];portConstraint=eastwest;rotatable=0;whiteSpace=wrap;html=1;fontStyle=0" parent="NFQ7hSv4LBOZTG51P4BY-9" vertex="1">
          <mxGeometry y="120" width="166" height="30" as="geometry" />
        </mxCell>
        <mxCell id="NFQ7hSv4LBOZTG51P4BY-14" value="Status" style="text;strokeColor=none;fillColor=none;align=left;verticalAlign=middle;spacingLeft=4;spacingRight=4;overflow=hidden;points=[[0,0.5],[1,0.5]];portConstraint=eastwest;rotatable=0;whiteSpace=wrap;html=1;fontStyle=0" parent="NFQ7hSv4LBOZTG51P4BY-9" vertex="1">
          <mxGeometry y="150" width="166" height="30" as="geometry" />
        </mxCell>
        <mxCell id="NFQ7hSv4LBOZTG51P4BY-15" value="Master_LoginData.csv" style="swimlane;fontStyle=0;childLayout=stackLayout;horizontal=1;startSize=30;horizontalStack=0;resizeParent=1;resizeParentMax=0;resizeLast=0;collapsible=1;marginBottom=0;whiteSpace=wrap;html=1;movable=1;resizable=1;rotatable=1;deletable=1;editable=1;locked=0;connectable=1;" parent="1" vertex="1">
          <mxGeometry x="-223" y="-513" width="166" height="150" as="geometry" />
        </mxCell>
        <mxCell id="NFQ7hSv4LBOZTG51P4BY-16" value="User ID [Primary Key]" style="text;strokeColor=none;fillColor=none;align=left;verticalAlign=middle;spacingLeft=4;spacingRight=4;overflow=hidden;points=[[0,0.5],[1,0.5]];portConstraint=eastwest;rotatable=1;whiteSpace=wrap;html=1;movable=1;resizable=1;deletable=1;editable=1;locked=0;connectable=1;" parent="NFQ7hSv4LBOZTG51P4BY-15" vertex="1">
          <mxGeometry y="30" width="166" height="30" as="geometry" />
        </mxCell>
        <mxCell id="NFQ7hSv4LBOZTG51P4BY-17" value="Password" style="text;strokeColor=none;fillColor=none;align=left;verticalAlign=middle;spacingLeft=4;spacingRight=4;overflow=hidden;points=[[0,0.5],[1,0.5]];portConstraint=eastwest;rotatable=1;whiteSpace=wrap;html=1;movable=1;resizable=1;deletable=1;editable=1;locked=0;connectable=1;" parent="NFQ7hSv4LBOZTG51P4BY-15" vertex="1">
          <mxGeometry y="60" width="166" height="30" as="geometry" />
        </mxCell>
        <mxCell id="NFQ7hSv4LBOZTG51P4BY-18" value="Role" style="text;strokeColor=none;fillColor=none;align=left;verticalAlign=middle;spacingLeft=4;spacingRight=4;overflow=hidden;points=[[0,0.5],[1,0.5]];portConstraint=eastwest;rotatable=1;whiteSpace=wrap;html=1;fontStyle=0;movable=1;resizable=1;deletable=1;editable=1;locked=0;connectable=1;" parent="NFQ7hSv4LBOZTG51P4BY-15" vertex="1">
          <mxGeometry y="90" width="166" height="30" as="geometry" />
        </mxCell>
        <mxCell id="NFQ7hSv4LBOZTG51P4BY-19" value="First Login" style="text;strokeColor=none;fillColor=none;align=left;verticalAlign=middle;spacingLeft=4;spacingRight=4;overflow=hidden;points=[[0,0.5],[1,0.5]];portConstraint=eastwest;rotatable=1;whiteSpace=wrap;html=1;fontStyle=0;movable=1;resizable=1;deletable=1;editable=1;locked=0;connectable=1;" parent="NFQ7hSv4LBOZTG51P4BY-15" vertex="1">
          <mxGeometry y="120" width="166" height="30" as="geometry" />
        </mxCell>
        <mxCell id="NFQ7hSv4LBOZTG51P4BY-20" value="Medicine_Request.csv" style="swimlane;fontStyle=0;childLayout=stackLayout;horizontal=1;startSize=30;horizontalStack=0;resizeParent=1;resizeParentMax=0;resizeLast=0;collapsible=1;marginBottom=0;whiteSpace=wrap;html=1;" parent="1" vertex="1">
          <mxGeometry x="-592.99" y="-426" width="166" height="210" as="geometry" />
        </mxCell>
        <mxCell id="NFQ7hSv4LBOZTG51P4BY-21" value="Medicine Name" style="text;strokeColor=none;fillColor=none;align=left;verticalAlign=middle;spacingLeft=4;spacingRight=4;overflow=hidden;points=[[0,0.5],[1,0.5]];portConstraint=eastwest;rotatable=0;whiteSpace=wrap;html=1;" parent="NFQ7hSv4LBOZTG51P4BY-20" vertex="1">
          <mxGeometry y="30" width="166" height="30" as="geometry" />
        </mxCell>
        <mxCell id="NFQ7hSv4LBOZTG51P4BY-22" value="Requested Quantity" style="text;strokeColor=none;fillColor=none;align=left;verticalAlign=middle;spacingLeft=4;spacingRight=4;overflow=hidden;points=[[0,0.5],[1,0.5]];portConstraint=eastwest;rotatable=0;whiteSpace=wrap;html=1;" parent="NFQ7hSv4LBOZTG51P4BY-20" vertex="1">
          <mxGeometry y="60" width="166" height="30" as="geometry" />
        </mxCell>
        <mxCell id="NFQ7hSv4LBOZTG51P4BY-23" value="Request Date" style="text;strokeColor=none;fillColor=none;align=left;verticalAlign=middle;spacingLeft=4;spacingRight=4;overflow=hidden;points=[[0,0.5],[1,0.5]];portConstraint=eastwest;rotatable=0;whiteSpace=wrap;html=1;fontStyle=0" parent="NFQ7hSv4LBOZTG51P4BY-20" vertex="1">
          <mxGeometry y="90" width="166" height="30" as="geometry" />
        </mxCell>
        <mxCell id="NFQ7hSv4LBOZTG51P4BY-24" value="Staff ID [Foreign Key]" style="text;strokeColor=none;fillColor=none;align=left;verticalAlign=middle;spacingLeft=4;spacingRight=4;overflow=hidden;points=[[0,0.5],[1,0.5]];portConstraint=eastwest;rotatable=0;whiteSpace=wrap;html=1;fontStyle=0" parent="NFQ7hSv4LBOZTG51P4BY-20" vertex="1">
          <mxGeometry y="120" width="166" height="30" as="geometry" />
        </mxCell>
        <mxCell id="NFQ7hSv4LBOZTG51P4BY-25" value="Status" style="text;strokeColor=none;fillColor=none;align=left;verticalAlign=middle;spacingLeft=4;spacingRight=4;overflow=hidden;points=[[0,0.5],[1,0.5]];portConstraint=eastwest;rotatable=0;whiteSpace=wrap;html=1;fontStyle=0" parent="NFQ7hSv4LBOZTG51P4BY-20" vertex="1">
          <mxGeometry y="150" width="166" height="30" as="geometry" />
        </mxCell>
        <mxCell id="NFQ7hSv4LBOZTG51P4BY-32" value="Approved By [Foreign Key]" style="text;strokeColor=none;fillColor=none;align=left;verticalAlign=middle;spacingLeft=4;spacingRight=4;overflow=hidden;points=[[0,0.5],[1,0.5]];portConstraint=eastwest;rotatable=0;whiteSpace=wrap;html=1;fontStyle=0" parent="NFQ7hSv4LBOZTG51P4BY-20" vertex="1">
          <mxGeometry y="180" width="166" height="30" as="geometry" />
        </mxCell>
        <mxCell id="NFQ7hSv4LBOZTG51P4BY-33" value="Medicine_Stock.csv" style="swimlane;fontStyle=0;childLayout=stackLayout;horizontal=1;startSize=30;horizontalStack=0;resizeParent=1;resizeParentMax=0;resizeLast=0;collapsible=1;marginBottom=0;whiteSpace=wrap;html=1;" parent="1" vertex="1">
          <mxGeometry x="-592.99" y="-156" width="166" height="120" as="geometry" />
        </mxCell>
        <mxCell id="NFQ7hSv4LBOZTG51P4BY-34" value="Medicine Name" style="text;strokeColor=none;fillColor=none;align=left;verticalAlign=middle;spacingLeft=4;spacingRight=4;overflow=hidden;points=[[0,0.5],[1,0.5]];portConstraint=eastwest;rotatable=0;whiteSpace=wrap;html=1;" parent="NFQ7hSv4LBOZTG51P4BY-33" vertex="1">
          <mxGeometry y="30" width="166" height="30" as="geometry" />
        </mxCell>
        <mxCell id="NFQ7hSv4LBOZTG51P4BY-35" value="Current Stock" style="text;strokeColor=none;fillColor=none;align=left;verticalAlign=middle;spacingLeft=4;spacingRight=4;overflow=hidden;points=[[0,0.5],[1,0.5]];portConstraint=eastwest;rotatable=0;whiteSpace=wrap;html=1;" parent="NFQ7hSv4LBOZTG51P4BY-33" vertex="1">
          <mxGeometry y="60" width="166" height="30" as="geometry" />
        </mxCell>
        <mxCell id="NFQ7hSv4LBOZTG51P4BY-36" value="Low Stock Level Alert" style="text;strokeColor=none;fillColor=none;align=left;verticalAlign=middle;spacingLeft=4;spacingRight=4;overflow=hidden;points=[[0,0.5],[1,0.5]];portConstraint=eastwest;rotatable=0;whiteSpace=wrap;html=1;fontStyle=0" parent="NFQ7hSv4LBOZTG51P4BY-33" vertex="1">
          <mxGeometry y="90" width="166" height="30" as="geometry" />
        </mxCell>
        <mxCell id="NFQ7hSv4LBOZTG51P4BY-38" value="Patient_Appointment.csv" style="swimlane;fontStyle=0;childLayout=stackLayout;horizontal=1;startSize=30;horizontalStack=0;resizeParent=1;resizeParentMax=0;resizeLast=0;collapsible=1;marginBottom=0;whiteSpace=wrap;html=1;" parent="1" vertex="1">
          <mxGeometry x="226" y="-188" width="166" height="242" as="geometry" />
        </mxCell>
        <mxCell id="NFQ7hSv4LBOZTG51P4BY-39" value="Appointment ID&lt;div&gt;[Primary Key]&lt;/div&gt;" style="text;strokeColor=none;fillColor=none;align=left;verticalAlign=middle;spacingLeft=4;spacingRight=4;overflow=hidden;points=[[0,0.5],[1,0.5]];portConstraint=eastwest;rotatable=0;whiteSpace=wrap;html=1;" parent="NFQ7hSv4LBOZTG51P4BY-38" vertex="1">
          <mxGeometry y="30" width="166" height="32" as="geometry" />
        </mxCell>
        <mxCell id="NFQ7hSv4LBOZTG51P4BY-40" value="Patient ID [Foreign Key]" style="text;strokeColor=none;fillColor=none;align=left;verticalAlign=middle;spacingLeft=4;spacingRight=4;overflow=hidden;points=[[0,0.5],[1,0.5]];portConstraint=eastwest;rotatable=0;whiteSpace=wrap;html=1;" parent="NFQ7hSv4LBOZTG51P4BY-38" vertex="1">
          <mxGeometry y="62" width="166" height="30" as="geometry" />
        </mxCell>
        <mxCell id="NFQ7hSv4LBOZTG51P4BY-41" value="Doctor ID [Foreign Key]" style="text;strokeColor=none;fillColor=none;align=left;verticalAlign=middle;spacingLeft=4;spacingRight=4;overflow=hidden;points=[[0,0.5],[1,0.5]];portConstraint=eastwest;rotatable=0;whiteSpace=wrap;html=1;fontStyle=0" parent="NFQ7hSv4LBOZTG51P4BY-38" vertex="1">
          <mxGeometry y="92" width="166" height="30" as="geometry" />
        </mxCell>
        <mxCell id="NFQ7hSv4LBOZTG51P4BY-42" value="Appointment Date" style="text;strokeColor=none;fillColor=none;align=left;verticalAlign=middle;spacingLeft=4;spacingRight=4;overflow=hidden;points=[[0,0.5],[1,0.5]];portConstraint=eastwest;rotatable=0;whiteSpace=wrap;html=1;fontStyle=0" parent="NFQ7hSv4LBOZTG51P4BY-38" vertex="1">
          <mxGeometry y="122" width="166" height="30" as="geometry" />
        </mxCell>
        <mxCell id="NFQ7hSv4LBOZTG51P4BY-43" value="Appointment Time Slot" style="text;strokeColor=none;fillColor=none;align=left;verticalAlign=middle;spacingLeft=4;spacingRight=4;overflow=hidden;points=[[0,0.5],[1,0.5]];portConstraint=eastwest;rotatable=0;whiteSpace=wrap;html=1;fontStyle=0" parent="NFQ7hSv4LBOZTG51P4BY-38" vertex="1">
          <mxGeometry y="152" width="166" height="30" as="geometry" />
        </mxCell>
        <mxCell id="NFQ7hSv4LBOZTG51P4BY-44" value="Status" style="text;strokeColor=none;fillColor=none;align=left;verticalAlign=middle;spacingLeft=4;spacingRight=4;overflow=hidden;points=[[0,0.5],[1,0.5]];portConstraint=eastwest;rotatable=0;whiteSpace=wrap;html=1;fontStyle=0" parent="NFQ7hSv4LBOZTG51P4BY-38" vertex="1">
          <mxGeometry y="182" width="166" height="30" as="geometry" />
        </mxCell>
        <mxCell id="NFQ7hSv4LBOZTG51P4BY-45" value="Outcome" style="text;strokeColor=none;fillColor=none;align=left;verticalAlign=middle;spacingLeft=4;spacingRight=4;overflow=hidden;points=[[0,0.5],[1,0.5]];portConstraint=eastwest;rotatable=0;whiteSpace=wrap;html=1;fontStyle=0" parent="NFQ7hSv4LBOZTG51P4BY-38" vertex="1">
          <mxGeometry y="212" width="166" height="30" as="geometry" />
        </mxCell>
        <mxCell id="NFQ7hSv4LBOZTG51P4BY-46" value="Patient_Diagnosis_Prescription.csv" style="swimlane;fontStyle=0;childLayout=stackLayout;horizontal=1;startSize=30;horizontalStack=0;resizeParent=1;resizeParentMax=0;resizeLast=0;collapsible=1;marginBottom=0;whiteSpace=wrap;html=1;" parent="1" vertex="1">
          <mxGeometry x="-354" y="-276" width="230" height="360" as="geometry" />
        </mxCell>
        <mxCell id="NFQ7hSv4LBOZTG51P4BY-47" value="Patient ID [Foreign Key]" style="text;strokeColor=none;fillColor=none;align=left;verticalAlign=middle;spacingLeft=4;spacingRight=4;overflow=hidden;points=[[0,0.5],[1,0.5]];portConstraint=eastwest;rotatable=0;whiteSpace=wrap;html=1;" parent="NFQ7hSv4LBOZTG51P4BY-46" vertex="1">
          <mxGeometry y="30" width="230" height="30" as="geometry" />
        </mxCell>
        <mxCell id="NFQ7hSv4LBOZTG51P4BY-48" value="Date" style="text;strokeColor=none;fillColor=none;align=left;verticalAlign=middle;spacingLeft=4;spacingRight=4;overflow=hidden;points=[[0,0.5],[1,0.5]];portConstraint=eastwest;rotatable=0;whiteSpace=wrap;html=1;" parent="NFQ7hSv4LBOZTG51P4BY-46" vertex="1">
          <mxGeometry y="60" width="230" height="30" as="geometry" />
        </mxCell>
        <mxCell id="NFQ7hSv4LBOZTG51P4BY-49" value="Diagnosis" style="text;strokeColor=none;fillColor=none;align=left;verticalAlign=middle;spacingLeft=4;spacingRight=4;overflow=hidden;points=[[0,0.5],[1,0.5]];portConstraint=eastwest;rotatable=0;whiteSpace=wrap;html=1;fontStyle=0" parent="NFQ7hSv4LBOZTG51P4BY-46" vertex="1">
          <mxGeometry y="90" width="230" height="30" as="geometry" />
        </mxCell>
        <mxCell id="NFQ7hSv4LBOZTG51P4BY-50" value="Treatments" style="text;strokeColor=none;fillColor=none;align=left;verticalAlign=middle;spacingLeft=4;spacingRight=4;overflow=hidden;points=[[0,0.5],[1,0.5]];portConstraint=eastwest;rotatable=0;whiteSpace=wrap;html=1;fontStyle=0" parent="NFQ7hSv4LBOZTG51P4BY-46" vertex="1">
          <mxGeometry y="120" width="230" height="30" as="geometry" />
        </mxCell>
        <mxCell id="NFQ7hSv4LBOZTG51P4BY-51" value="Prescription" style="text;strokeColor=none;fillColor=none;align=left;verticalAlign=middle;spacingLeft=4;spacingRight=4;overflow=hidden;points=[[0,0.5],[1,0.5]];portConstraint=eastwest;rotatable=0;whiteSpace=wrap;html=1;fontStyle=0" parent="NFQ7hSv4LBOZTG51P4BY-46" vertex="1">
          <mxGeometry y="150" width="230" height="30" as="geometry" />
        </mxCell>
        <mxCell id="NFQ7hSv4LBOZTG51P4BY-52" value="Quantity" style="text;strokeColor=none;fillColor=none;align=left;verticalAlign=middle;spacingLeft=4;spacingRight=4;overflow=hidden;points=[[0,0.5],[1,0.5]];portConstraint=eastwest;rotatable=0;whiteSpace=wrap;html=1;fontStyle=0" parent="NFQ7hSv4LBOZTG51P4BY-46" vertex="1">
          <mxGeometry y="180" width="230" height="30" as="geometry" />
        </mxCell>
        <mxCell id="NFQ7hSv4LBOZTG51P4BY-53" value="Case Notes" style="text;strokeColor=none;fillColor=none;align=left;verticalAlign=middle;spacingLeft=4;spacingRight=4;overflow=hidden;points=[[0,0.5],[1,0.5]];portConstraint=eastwest;rotatable=0;whiteSpace=wrap;html=1;fontStyle=0" parent="NFQ7hSv4LBOZTG51P4BY-46" vertex="1">
          <mxGeometry y="210" width="230" height="30" as="geometry" />
        </mxCell>
        <mxCell id="NFQ7hSv4LBOZTG51P4BY-54" value="Status" style="text;strokeColor=none;fillColor=none;align=left;verticalAlign=middle;spacingLeft=4;spacingRight=4;overflow=hidden;points=[[0,0.5],[1,0.5]];portConstraint=eastwest;rotatable=0;whiteSpace=wrap;html=1;fontStyle=0" parent="NFQ7hSv4LBOZTG51P4BY-46" vertex="1">
          <mxGeometry y="240" width="230" height="30" as="geometry" />
        </mxCell>
        <mxCell id="NFQ7hSv4LBOZTG51P4BY-55" value="Staff ID [Foreign Key]" style="text;strokeColor=none;fillColor=none;align=left;verticalAlign=middle;spacingLeft=4;spacingRight=4;overflow=hidden;points=[[0,0.5],[1,0.5]];portConstraint=eastwest;rotatable=0;whiteSpace=wrap;html=1;fontStyle=0" parent="NFQ7hSv4LBOZTG51P4BY-46" vertex="1">
          <mxGeometry y="270" width="230" height="30" as="geometry" />
        </mxCell>
        <mxCell id="NFQ7hSv4LBOZTG51P4BY-56" value="Appointment ID [Foreign Key]" style="text;strokeColor=none;fillColor=none;align=left;verticalAlign=middle;spacingLeft=4;spacingRight=4;overflow=hidden;points=[[0,0.5],[1,0.5]];portConstraint=eastwest;rotatable=0;whiteSpace=wrap;html=1;fontStyle=0" parent="NFQ7hSv4LBOZTG51P4BY-46" vertex="1">
          <mxGeometry y="300" width="230" height="30" as="geometry" />
        </mxCell>
        <mxCell id="NFQ7hSv4LBOZTG51P4BY-57" value="Type of Service" style="text;strokeColor=none;fillColor=none;align=left;verticalAlign=middle;spacingLeft=4;spacingRight=4;overflow=hidden;points=[[0,0.5],[1,0.5]];portConstraint=eastwest;rotatable=0;whiteSpace=wrap;html=1;fontStyle=0" parent="NFQ7hSv4LBOZTG51P4BY-46" vertex="1">
          <mxGeometry y="330" width="230" height="30" as="geometry" />
        </mxCell>
        <mxCell id="NFQ7hSv4LBOZTG51P4BY-58" value="Patient_Records.csv" style="swimlane;fontStyle=0;childLayout=stackLayout;horizontal=1;startSize=30;horizontalStack=0;resizeParent=1;resizeParentMax=0;resizeLast=0;collapsible=1;marginBottom=0;whiteSpace=wrap;html=1;" parent="1" vertex="1">
          <mxGeometry x="226" y="-513" width="166" height="240" as="geometry" />
        </mxCell>
        <mxCell id="NFQ7hSv4LBOZTG51P4BY-59" value="Patient ID [Primary Key]" style="text;strokeColor=none;fillColor=none;align=left;verticalAlign=middle;spacingLeft=4;spacingRight=4;overflow=hidden;points=[[0,0.5],[1,0.5]];portConstraint=eastwest;rotatable=0;whiteSpace=wrap;html=1;" parent="NFQ7hSv4LBOZTG51P4BY-58" vertex="1">
          <mxGeometry y="30" width="166" height="30" as="geometry" />
        </mxCell>
        <mxCell id="NFQ7hSv4LBOZTG51P4BY-60" value="Name" style="text;strokeColor=none;fillColor=none;align=left;verticalAlign=middle;spacingLeft=4;spacingRight=4;overflow=hidden;points=[[0,0.5],[1,0.5]];portConstraint=eastwest;rotatable=0;whiteSpace=wrap;html=1;" parent="NFQ7hSv4LBOZTG51P4BY-58" vertex="1">
          <mxGeometry y="60" width="166" height="30" as="geometry" />
        </mxCell>
        <mxCell id="NFQ7hSv4LBOZTG51P4BY-61" value="Date of Birth" style="text;strokeColor=none;fillColor=none;align=left;verticalAlign=middle;spacingLeft=4;spacingRight=4;overflow=hidden;points=[[0,0.5],[1,0.5]];portConstraint=eastwest;rotatable=0;whiteSpace=wrap;html=1;fontStyle=0" parent="NFQ7hSv4LBOZTG51P4BY-58" vertex="1">
          <mxGeometry y="90" width="166" height="30" as="geometry" />
        </mxCell>
        <mxCell id="NFQ7hSv4LBOZTG51P4BY-62" value="Gender" style="text;strokeColor=none;fillColor=none;align=left;verticalAlign=middle;spacingLeft=4;spacingRight=4;overflow=hidden;points=[[0,0.5],[1,0.5]];portConstraint=eastwest;rotatable=0;whiteSpace=wrap;html=1;fontStyle=0" parent="NFQ7hSv4LBOZTG51P4BY-58" vertex="1">
          <mxGeometry y="120" width="166" height="30" as="geometry" />
        </mxCell>
        <mxCell id="NFQ7hSv4LBOZTG51P4BY-63" value="Blood Type" style="text;strokeColor=none;fillColor=none;align=left;verticalAlign=middle;spacingLeft=4;spacingRight=4;overflow=hidden;points=[[0,0.5],[1,0.5]];portConstraint=eastwest;rotatable=0;whiteSpace=wrap;html=1;fontStyle=0" parent="NFQ7hSv4LBOZTG51P4BY-58" vertex="1">
          <mxGeometry y="150" width="166" height="30" as="geometry" />
        </mxCell>
        <mxCell id="NFQ7hSv4LBOZTG51P4BY-64" value="Email Address" style="text;strokeColor=none;fillColor=none;align=left;verticalAlign=middle;spacingLeft=4;spacingRight=4;overflow=hidden;points=[[0,0.5],[1,0.5]];portConstraint=eastwest;rotatable=0;whiteSpace=wrap;html=1;fontStyle=0" parent="NFQ7hSv4LBOZTG51P4BY-58" vertex="1">
          <mxGeometry y="180" width="166" height="30" as="geometry" />
        </mxCell>
        <mxCell id="NFQ7hSv4LBOZTG51P4BY-65" value="Phone Number" style="text;strokeColor=none;fillColor=none;align=left;verticalAlign=middle;spacingLeft=4;spacingRight=4;overflow=hidden;points=[[0,0.5],[1,0.5]];portConstraint=eastwest;rotatable=0;whiteSpace=wrap;html=1;fontStyle=0" parent="NFQ7hSv4LBOZTG51P4BY-58" vertex="1">
          <mxGeometry y="210" width="166" height="30" as="geometry" />
        </mxCell>
        <mxCell id="NFQ7hSv4LBOZTG51P4BY-66" value="Staff_Records.csv" style="swimlane;fontStyle=0;childLayout=stackLayout;horizontal=1;startSize=30;horizontalStack=0;resizeParent=1;resizeParentMax=0;resizeLast=0;collapsible=1;marginBottom=0;whiteSpace=wrap;html=1;" parent="1" vertex="1">
          <mxGeometry x="-10" y="-194" width="166" height="270" as="geometry" />
        </mxCell>
        <mxCell id="NFQ7hSv4LBOZTG51P4BY-67" value="Staff ID&amp;nbsp;[Primary Key]" style="text;strokeColor=none;fillColor=none;align=left;verticalAlign=middle;spacingLeft=4;spacingRight=4;overflow=hidden;points=[[0,0.5],[1,0.5]];portConstraint=eastwest;rotatable=0;whiteSpace=wrap;html=1;" parent="NFQ7hSv4LBOZTG51P4BY-66" vertex="1">
          <mxGeometry y="30" width="166" height="30" as="geometry" />
        </mxCell>
        <mxCell id="NFQ7hSv4LBOZTG51P4BY-68" value="Name" style="text;strokeColor=none;fillColor=none;align=left;verticalAlign=middle;spacingLeft=4;spacingRight=4;overflow=hidden;points=[[0,0.5],[1,0.5]];portConstraint=eastwest;rotatable=0;whiteSpace=wrap;html=1;" parent="NFQ7hSv4LBOZTG51P4BY-66" vertex="1">
          <mxGeometry y="60" width="166" height="30" as="geometry" />
        </mxCell>
        <mxCell id="NFQ7hSv4LBOZTG51P4BY-69" value="Role" style="text;strokeColor=none;fillColor=none;align=left;verticalAlign=middle;spacingLeft=4;spacingRight=4;overflow=hidden;points=[[0,0.5],[1,0.5]];portConstraint=eastwest;rotatable=0;whiteSpace=wrap;html=1;fontStyle=0" parent="NFQ7hSv4LBOZTG51P4BY-66" vertex="1">
          <mxGeometry y="90" width="166" height="30" as="geometry" />
        </mxCell>
        <mxCell id="NFQ7hSv4LBOZTG51P4BY-70" value="Gender" style="text;strokeColor=none;fillColor=none;align=left;verticalAlign=middle;spacingLeft=4;spacingRight=4;overflow=hidden;points=[[0,0.5],[1,0.5]];portConstraint=eastwest;rotatable=0;whiteSpace=wrap;html=1;fontStyle=0" parent="NFQ7hSv4LBOZTG51P4BY-66" vertex="1">
          <mxGeometry y="120" width="166" height="30" as="geometry" />
        </mxCell>
        <mxCell id="NFQ7hSv4LBOZTG51P4BY-71" value="Age" style="text;strokeColor=none;fillColor=none;align=left;verticalAlign=middle;spacingLeft=4;spacingRight=4;overflow=hidden;points=[[0,0.5],[1,0.5]];portConstraint=eastwest;rotatable=0;whiteSpace=wrap;html=1;fontStyle=0" parent="NFQ7hSv4LBOZTG51P4BY-66" vertex="1">
          <mxGeometry y="150" width="166" height="30" as="geometry" />
        </mxCell>
        <mxCell id="NFQ7hSv4LBOZTG51P4BY-72" value="Email Address" style="text;strokeColor=none;fillColor=none;align=left;verticalAlign=middle;spacingLeft=4;spacingRight=4;overflow=hidden;points=[[0,0.5],[1,0.5]];portConstraint=eastwest;rotatable=0;whiteSpace=wrap;html=1;fontStyle=0" parent="NFQ7hSv4LBOZTG51P4BY-66" vertex="1">
          <mxGeometry y="180" width="166" height="30" as="geometry" />
        </mxCell>
        <mxCell id="NFQ7hSv4LBOZTG51P4BY-74" value="Phone Number" style="text;strokeColor=none;fillColor=none;align=left;verticalAlign=middle;spacingLeft=4;spacingRight=4;overflow=hidden;points=[[0,0.5],[1,0.5]];portConstraint=eastwest;rotatable=0;whiteSpace=wrap;html=1;fontStyle=0" parent="NFQ7hSv4LBOZTG51P4BY-66" vertex="1">
          <mxGeometry y="210" width="166" height="30" as="geometry" />
        </mxCell>
        <mxCell id="NFQ7hSv4LBOZTG51P4BY-73" value="Deactivated" style="text;strokeColor=none;fillColor=none;align=left;verticalAlign=middle;spacingLeft=4;spacingRight=4;overflow=hidden;points=[[0,0.5],[1,0.5]];portConstraint=eastwest;rotatable=0;whiteSpace=wrap;html=1;fontStyle=0" parent="NFQ7hSv4LBOZTG51P4BY-66" vertex="1">
          <mxGeometry y="240" width="166" height="30" as="geometry" />
        </mxCell>
        <mxCell id="PwmSEa63OTBfnb7pYtlq-8" value="" style="edgeStyle=entityRelationEdgeStyle;fontSize=12;html=1;endArrow=ERmandOne;startArrow=ERmandOne;rounded=1;exitX=1;exitY=0.5;exitDx=0;exitDy=0;entryX=0;entryY=0.5;entryDx=0;entryDy=0;curved=0;" parent="1" source="NFQ7hSv4LBOZTG51P4BY-16" target="NFQ7hSv4LBOZTG51P4BY-59" edge="1">
          <mxGeometry width="100" height="100" relative="1" as="geometry">
            <mxPoint x="602" y="-262" as="sourcePoint" />
            <mxPoint x="702" y="-362" as="targetPoint" />
          </mxGeometry>
        </mxCell>
        <mxCell id="PwmSEa63OTBfnb7pYtlq-10" value="" style="edgeStyle=elbowEdgeStyle;fontSize=12;html=1;endArrow=ERmandOne;startArrow=ERmandOne;rounded=1;entryX=0;entryY=0.5;entryDx=0;entryDy=0;exitX=1;exitY=0.5;exitDx=0;exitDy=0;curved=0;" parent="1" source="NFQ7hSv4LBOZTG51P4BY-16" target="NFQ7hSv4LBOZTG51P4BY-67" edge="1">
          <mxGeometry width="100" height="100" relative="1" as="geometry">
            <mxPoint x="-87" y="-396" as="sourcePoint" />
            <mxPoint x="420" y="-393" as="targetPoint" />
            <Array as="points">
              <mxPoint x="-41" y="-300" />
            </Array>
          </mxGeometry>
        </mxCell>
        <mxCell id="PwmSEa63OTBfnb7pYtlq-15" value="" style="edgeStyle=orthogonalEdgeStyle;fontSize=12;html=1;endArrow=ERzeroToMany;startArrow=ERmandOne;rounded=1;exitX=0;exitY=0.5;exitDx=0;exitDy=0;entryX=0;entryY=0.5;entryDx=0;entryDy=0;curved=0;" parent="1" source="NFQ7hSv4LBOZTG51P4BY-67" target="NFQ7hSv4LBOZTG51P4BY-41" edge="1">
          <mxGeometry width="100" height="100" relative="1" as="geometry">
            <mxPoint x="576" y="-403" as="sourcePoint" />
            <mxPoint x="370" y="-195" as="targetPoint" />
            <Array as="points">
              <mxPoint x="-41" y="-149" />
              <mxPoint x="-41" y="-208" />
              <mxPoint x="207" y="-208" />
              <mxPoint x="207" y="-81" />
            </Array>
          </mxGeometry>
        </mxCell>
        <mxCell id="PwmSEa63OTBfnb7pYtlq-16" value="" style="edgeStyle=elbowEdgeStyle;fontSize=12;html=1;endArrow=ERzeroToMany;startArrow=ERmandOne;rounded=1;exitX=0;exitY=0.5;exitDx=0;exitDy=0;entryX=0;entryY=0.5;entryDx=0;entryDy=0;curved=0;" parent="1" source="NFQ7hSv4LBOZTG51P4BY-67" target="NFQ7hSv4LBOZTG51P4BY-5" edge="1">
          <mxGeometry width="100" height="100" relative="1" as="geometry">
            <mxPoint x="196" y="-116" as="sourcePoint" />
            <mxPoint x="227" y="-184" as="targetPoint" />
            <Array as="points">
              <mxPoint x="-41" y="-276" />
            </Array>
          </mxGeometry>
        </mxCell>
        <mxCell id="PwmSEa63OTBfnb7pYtlq-20" value="" style="edgeStyle=entityRelationEdgeStyle;fontSize=12;html=1;endArrow=ERzeroToMany;startArrow=ERmandOne;rounded=1;entryX=1;entryY=0.5;entryDx=0;entryDy=0;exitX=0;exitY=0.5;exitDx=0;exitDy=0;curved=0;" parent="1" source="NFQ7hSv4LBOZTG51P4BY-67" target="NFQ7hSv4LBOZTG51P4BY-55" edge="1">
          <mxGeometry width="100" height="100" relative="1" as="geometry">
            <mxPoint x="36" y="-326" as="sourcePoint" />
            <mxPoint x="89" y="-162" as="targetPoint" />
            <Array as="points">
              <mxPoint x="-25" y="-187" />
              <mxPoint x="-35" y="-52" />
            </Array>
          </mxGeometry>
        </mxCell>
        <mxCell id="PwmSEa63OTBfnb7pYtlq-26" value="" style="edgeStyle=orthogonalEdgeStyle;fontSize=12;html=1;endArrow=ERzeroToOne;startArrow=ERmandOne;rounded=1;entryX=1;entryY=0.5;entryDx=0;entryDy=0;exitX=1;exitY=0.5;exitDx=0;exitDy=0;" parent="1" source="NFQ7hSv4LBOZTG51P4BY-56" target="NFQ7hSv4LBOZTG51P4BY-39" edge="1">
          <mxGeometry width="100" height="100" relative="1" as="geometry">
            <mxPoint x="164" y="49" as="sourcePoint" />
            <mxPoint x="300" y="30" as="targetPoint" />
            <Array as="points">
              <mxPoint x="-66" y="39" />
              <mxPoint x="-66" y="88" />
              <mxPoint x="434" y="88" />
              <mxPoint x="434" y="-142" />
            </Array>
          </mxGeometry>
        </mxCell>
        <mxCell id="PwmSEa63OTBfnb7pYtlq-27" value="" style="edgeStyle=orthogonalEdgeStyle;fontSize=12;html=1;endArrow=ERzeroToMany;startArrow=ERzeroToOne;rounded=1;exitX=1;exitY=0.5;exitDx=0;exitDy=0;entryX=1;entryY=0.5;entryDx=0;entryDy=0;curved=0;" parent="1" source="NFQ7hSv4LBOZTG51P4BY-59" target="NFQ7hSv4LBOZTG51P4BY-40" edge="1">
          <mxGeometry width="100" height="100" relative="1" as="geometry">
            <mxPoint x="-108" y="-221" as="sourcePoint" />
            <mxPoint x="-8" y="-321" as="targetPoint" />
            <Array as="points">
              <mxPoint x="420" y="-468" />
              <mxPoint x="420" y="-111" />
            </Array>
          </mxGeometry>
        </mxCell>
        <mxCell id="PwmSEa63OTBfnb7pYtlq-28" value="" style="edgeStyle=orthogonalEdgeStyle;fontSize=12;html=1;endArrow=ERzeroToMany;startArrow=ERzeroToOne;rounded=1;exitX=1;exitY=0.5;exitDx=0;exitDy=0;entryX=1;entryY=0.5;entryDx=0;entryDy=0;curved=0;" parent="1" source="NFQ7hSv4LBOZTG51P4BY-59" target="NFQ7hSv4LBOZTG51P4BY-47" edge="1">
          <mxGeometry width="100" height="100" relative="1" as="geometry">
            <mxPoint x="576" y="-403" as="sourcePoint" />
            <mxPoint x="293" y="-572" as="targetPoint" />
            <Array as="points">
              <mxPoint x="420" y="-468" />
              <mxPoint x="420" y="-231" />
            </Array>
          </mxGeometry>
        </mxCell>
        <mxCell id="PwmSEa63OTBfnb7pYtlq-36" value="" style="edgeStyle=orthogonalEdgeStyle;fontSize=12;html=1;endArrow=ERzeroToOne;startArrow=ERmandOne;rounded=1;entryX=1;entryY=0.5;entryDx=0;entryDy=0;exitX=1;exitY=0.5;exitDx=0;exitDy=0;curved=0;" parent="1" source="NFQ7hSv4LBOZTG51P4BY-24" target="NFQ7hSv4LBOZTG51P4BY-67" edge="1">
          <mxGeometry width="100" height="100" relative="1" as="geometry">
            <mxPoint x="-199" y="-170" as="sourcePoint" />
            <mxPoint x="-99" y="-270" as="targetPoint" />
            <Array as="points">
              <mxPoint x="181" y="-291" />
              <mxPoint x="181" y="-149" />
            </Array>
          </mxGeometry>
        </mxCell>
        <mxCell id="PwmSEa63OTBfnb7pYtlq-37" value="" style="edgeStyle=orthogonalEdgeStyle;fontSize=12;html=1;endArrow=ERzeroToOne;startArrow=ERmandOne;rounded=1;entryX=1;entryY=0.5;entryDx=0;entryDy=0;curved=0;exitX=1;exitY=0.5;exitDx=0;exitDy=0;" parent="1" source="NFQ7hSv4LBOZTG51P4BY-32" target="NFQ7hSv4LBOZTG51P4BY-67" edge="1">
          <mxGeometry width="100" height="100" relative="1" as="geometry">
            <mxPoint x="-199" y="-170" as="sourcePoint" />
            <mxPoint x="-99" y="-270" as="targetPoint" />
            <Array as="points">
              <mxPoint x="-384" y="-231" />
              <mxPoint x="-384" y="-291" />
              <mxPoint x="181" y="-291" />
              <mxPoint x="181" y="-149" />
            </Array>
          </mxGeometry>
        </mxCell>
        <mxCell id="PwmSEa63OTBfnb7pYtlq-38" value="" style="edgeStyle=elbowEdgeStyle;fontSize=12;html=1;endArrow=ERzeroToMany;startArrow=ERzeroToOne;rounded=1;exitX=0;exitY=0.5;exitDx=0;exitDy=0;entryX=1;entryY=0.5;entryDx=0;entryDy=0;" parent="1" source="NFQ7hSv4LBOZTG51P4BY-16" target="NFQ7hSv4LBOZTG51P4BY-11" edge="1">
          <mxGeometry width="100" height="100" relative="1" as="geometry">
            <mxPoint x="-89" y="-253" as="sourcePoint" />
            <mxPoint x="11" y="-353" as="targetPoint" />
          </mxGeometry>
        </mxCell>
        <mxCell id="PwmSEa63OTBfnb7pYtlq-41" value="" style="edgeStyle=entityRelationEdgeStyle;fontSize=12;html=1;endArrow=ERzeroToMany;startArrow=ERmandOne;rounded=0;entryX=1;entryY=0.5;entryDx=0;entryDy=0;exitX=0;exitY=0.5;exitDx=0;exitDy=0;" parent="1" source="NFQ7hSv4LBOZTG51P4BY-51" target="NFQ7hSv4LBOZTG51P4BY-34" edge="1">
          <mxGeometry width="100" height="100" relative="1" as="geometry">
            <mxPoint x="-422" y="46" as="sourcePoint" />
            <mxPoint x="-379" y="-82" as="targetPoint" />
          </mxGeometry>
        </mxCell>
        <mxCell id="PwmSEa63OTBfnb7pYtlq-42" value="" style="edgeStyle=elbowEdgeStyle;fontSize=12;html=1;endArrow=ERzeroToMany;startArrow=ERmandOne;rounded=1;exitX=0;exitY=0.5;exitDx=0;exitDy=0;entryX=0;entryY=0.5;entryDx=0;entryDy=0;curved=0;" parent="1" source="NFQ7hSv4LBOZTG51P4BY-34" target="NFQ7hSv4LBOZTG51P4BY-21" edge="1">
          <mxGeometry width="100" height="100" relative="1" as="geometry">
            <mxPoint x="-786" y="-137" as="sourcePoint" />
            <mxPoint x="-662" y="-216" as="targetPoint" />
            <Array as="points">
              <mxPoint x="-622" y="-248" />
            </Array>
          </mxGeometry>
        </mxCell>
        <mxCell id="jKC-Nr9NgApRdRtEfwqQ-1" value="" style="fontSize=12;html=1;endArrow=ERmandOne;startArrow=ERmandOne;rounded=0;" edge="1" parent="1">
          <mxGeometry width="100" height="100" relative="1" as="geometry">
            <mxPoint x="-789" y="-484.14" as="sourcePoint" />
            <mxPoint x="-749" y="-484.14" as="targetPoint" />
          </mxGeometry>
        </mxCell>
        <mxCell id="jKC-Nr9NgApRdRtEfwqQ-4" value="" style="fontSize=12;html=1;endArrow=ERzeroToMany;startArrow=ERmandOne;rounded=1;entryX=0.54;entryY=0;entryDx=0;entryDy=0;entryPerimeter=0;" edge="1" parent="1">
          <mxGeometry width="100" height="100" relative="1" as="geometry">
            <mxPoint x="-789" y="-467.14" as="sourcePoint" />
            <mxPoint x="-749.2" y="-467.14" as="targetPoint" />
          </mxGeometry>
        </mxCell>
        <mxCell id="jKC-Nr9NgApRdRtEfwqQ-5" value="" style="edgeStyle=elbowEdgeStyle;fontSize=12;html=1;endArrow=ERzeroToMany;startArrow=ERzeroToOne;rounded=1;" edge="1" parent="1">
          <mxGeometry width="100" height="100" relative="1" as="geometry">
            <mxPoint x="-789" y="-443.64" as="sourcePoint" />
            <mxPoint x="-749" y="-443.64" as="targetPoint" />
          </mxGeometry>
        </mxCell>
        <mxCell id="jKC-Nr9NgApRdRtEfwqQ-15" value="Legend" style="swimlane;fontStyle=0;childLayout=stackLayout;horizontal=1;startSize=30;horizontalStack=0;resizeParent=1;resizeParentMax=0;resizeLast=0;collapsible=1;marginBottom=0;whiteSpace=wrap;html=1;fillColor=#fff2cc;strokeColor=#d6b656;" vertex="1" collapsed="1" parent="1">
          <mxGeometry x="-758" y="-514" width="75" height="19" as="geometry">
            <mxRectangle x="-545" y="-636" width="166" height="60" as="alternateBounds" />
          </mxGeometry>
        </mxCell>
        <mxCell id="jKC-Nr9NgApRdRtEfwqQ-22" value="1 to 1" style="text;html=1;align=left;verticalAlign=middle;whiteSpace=wrap;rounded=0;" vertex="1" parent="1">
          <mxGeometry x="-737" y="-491" width="33" height="14" as="geometry" />
        </mxCell>
        <mxCell id="jKC-Nr9NgApRdRtEfwqQ-23" value="1 to Many (Optional)" style="text;html=1;align=left;verticalAlign=middle;whiteSpace=wrap;rounded=0;" vertex="1" parent="1">
          <mxGeometry x="-737" y="-474" width="113" height="14" as="geometry" />
        </mxCell>
        <mxCell id="jKC-Nr9NgApRdRtEfwqQ-24" value="1 (Optional) to Many (Optional)" style="text;html=1;align=left;verticalAlign=middle;whiteSpace=wrap;rounded=0;" vertex="1" parent="1">
          <mxGeometry x="-737" y="-457" width="117.5" height="27" as="geometry" />
        </mxCell>
      </root>
    </mxGraphModel>
  </diagram>
</mxfile>
